<svg xmlns="http://www.w3.org/2000/svg" viewBox="0 0 584 176" width="584" height="176"><g transform="translate(24 24) scale(1.28)"><circle cx="50" cy="50" r="42" fill="none" stroke="#1e2327" stroke-width="10" stroke-dasharray="11 10.99"/><circle cx="50" cy="50" r="36" fill="none" stroke="#1e2327" stroke-width="5"/><path d="M50 23 L71 29.5 V48 C71 62 61 71.5 50 77 C39 71.5 29 62 29 48 V29.5 Z" fill="#c9471f" stroke="#c9471f" stroke-width="2" stroke-linejoin="round"/><path transform="translate(39.14 60)" d="M2.226415850639343 0.0V-19.244569281578066H14.857220808029176Q16.784526147842406 -19.244569281578066 18.18878556108475 -18.430952148437502Q19.59304497432709 -17.617335015296938 20.361338349819185 -16.172221679687503Q21.12963172531128 -14.727108344078065 21.12963172531128 -12.80575449527458Q21.12963172531128 -10.866352049827576 20.344014592170716 -9.40084711265564Q19.55839745903015 -7.9353421754837035 18.134707327365874 -7.126009683132171Q16.7110171957016 -6.31667719078064 14.786145449638367 -6.31667719078064H7.576027396202088V0.0ZM7.576027396202088 -10.356725692749023H13.412332357406617Q14.628878581364951 -10.356725692749023 15.264045844713849 -10.987132106251913Q15.899213108062744 -11.617538519754802 15.899213108062744 -12.777302437521007Q15.899213108062744 -13.564362359046937 15.617865256500245 -14.095474666878985Q15.336517404937744 -14.626586974711032 14.78745222492218 -14.907640845582293Q14.238387044906617 -15.188694716453552 13.412332357406617 -15.188694716453552H7.576027396202088Z" fill="#fff"/></g><path transform="translate(182.00 95.75)" d="M4.9010283203125 0.0V-39.877520507812505H35.677533203125Q39.5950537109375 -39.877520507812505 42.544854980468756 -38.14823974609375Q45.494656250000006 -36.418958984375 47.13693701171876 -33.363876953125Q48.7792177734375 -30.308794921875002 48.7792177734375 -26.324051642071762Q48.7792177734375 -22.3010283203125 47.107937011718754 -19.203706542968753Q45.436656250000006 -16.106384765625002 42.46037548828126 -14.392864257812501Q39.4840947265625 -12.679343750000001 35.571615234375 -12.679343750000001H16.7114765625V0.0ZM16.7114765625 -21.432246093750003H32.2845615234375Q34.90508723958334 -21.432246093750003 36.25969498697917 -22.69185600385274Q37.614302734375 -23.95146591395548 37.614302734375 -26.269562245826197Q37.614302734375 -27.842548828125 37.000487876674114 -28.916800662478884Q36.38667301897322 -29.991052496832772 35.20625447823661 -30.557835330447638Q34.0258359375 -31.1246181640625 32.2845615234375 -31.1246181640625H16.7114765625Z M56.5790283203125 0.0V-39.877520507812505H89.7700947265625Q94.1301767578125 -39.877520507812505 96.984779296875 -38.08771923828125Q99.8393818359375 -36.29791796875 101.26794335937501 -33.374596191406255Q102.6965048828125 -30.451274414062503 102.6965048828125 -26.99775390625Q102.6965048828125 -23.20758984375 100.901025390625 -20.10458984375Q99.1055458984375 -17.00158984375 95.49818945312501 -15.198548828125L103.65098437500001 0.0H90.32876953125L83.71422070312501 -13.264384765625001H68.38947656250001V0.0ZM68.38947656250001 -21.9908076171875H85.91567187500002Q88.04278222656251 -21.9908076171875 89.31689892578126 -23.2706025390625Q90.59101562500001 -24.5503974609375 90.59101562500001 -26.666151367187503Q90.59101562500001 -28.0959873046875 90.01605664062501 -29.0958642578125Q89.44109765625001 -30.0957412109375 88.40150146484376 -30.6101796875Q87.36190527343751 -31.1246181640625 85.91567187500002 -31.1246181640625H68.38947656250001Z M108.361671875 0.0 127.9669462890625 -39.877520507812505H141.0949970703125L160.700271484375 0.0H147.92526171875L144.91175390625 -6.390138671875H123.512189453125L120.53020214843751 0.0ZM127.4649970703125 -15.037123046875001H140.9589462890625L137.3276025390625 -23.142056640625Q137.1006435546875 -23.6854951171875 136.69148583984375 -24.6803310546875Q136.282328125 -25.675166992187503 135.84164990234376 -26.806804199218753Q135.4009716796875 -27.93844140625 135.0290126953125 -28.91120166015625Q134.6570537109375 -29.883961914062503 134.4729716796875 -30.351728515625002H134.0404921875Q133.6130537109375 -29.2862900390625 133.05637548828125 -27.9043720703125Q132.499697265625 -26.522454101562502 131.9852587890625 -25.225015625Q131.4708203125 -23.9275771484375 131.0963408203125 -23.115577148437502Z M168.22902832031252 0.0V-39.877520507812505H180.03947656250003V-25.037053710937503H203.97342578125003V-39.877520507812505H215.78387402343753V0.0H203.97342578125003V-15.53142578125H180.03947656250003V0.0Z M227.33102832031253 0.0V-39.877520507812505H239.14147656250003V-9.5056279296875H264.74468164062506V0.0Z M268.78967187500007 0.0 288.39494628906255 -39.877520507812505H301.52299707031256L321.12827148437503 0.0H308.35326171875005L305.33975390625005 -6.390138671875H283.9401894531251L280.9582021484375 0.0ZM287.89299707031256 -15.037123046875001H301.38694628906256L297.7556025390625 -23.142056640625Q297.52864355468756 -23.6854951171875 297.11948583984383 -24.6803310546875Q296.71032812500005 -25.675166992187503 296.26964990234376 -26.806804199218753Q295.8289716796875 -27.93844140625 295.4570126953125 -28.91120166015625Q295.08505371093753 -29.883961914062503 294.90097167968753 -30.351728515625002H294.46849218750003Q294.04105371093755 -29.2862900390625 293.48437548828133 -27.9043720703125Q292.92769726562506 -26.522454101562502 292.4132587890625 -25.225015625Q291.89882031250005 -23.9275771484375 291.52434082031255 -23.115577148437502Z M328.6570283203126 0.0V-39.877520507812505H350.9567255859376Q358.3277666015626 -39.877520507812505 363.6555678710938 -37.57076025390626Q368.9833691406251 -35.264 371.8436499023438 -30.811239746093754Q374.70393066406257 -26.358479492187502 374.70393066406257 -19.9255205078125Q374.70393066406257 -13.519041015625001 371.8436499023438 -9.066280761718751Q368.9833691406251 -4.6135205078125 363.6555678710938 -2.30676025390625Q358.3277666015626 0.0 350.9567255859376 0.0ZM340.4674765625001 -8.75290234375H350.2720820312501Q353.0207949218751 -8.75290234375 355.26074755859383 -9.475381835937501Q357.50070019531256 -10.197861328125 359.1392143554688 -11.550779296875Q360.7777285156251 -12.903697265625 361.65908496093755 -14.8530126953125Q362.54044140625007 -16.802328125000003 362.54044140625007 -19.287520507812502V-20.653041015625Q362.54044140625007 -23.1382333984375 361.65908496093755 -25.07178857421875Q360.7777285156251 -27.00534375 359.1392143554688 -28.35826171875Q357.50070019531256 -29.711179687500003 355.26074755859383 -30.41789892578125Q353.0207949218751 -31.1246181640625 350.2720820312501 -31.1246181640625H340.4674765625001Z" fill="#1e2327"/><path transform="translate(182.00 120.04)" d="M3.6763055419921873 0.0V-8.407811279296874H0.36847778320312496V-10.296522216796875H9.239371948242187V-8.407811279296874H5.923066406249999V0.0Z M19.148477783203127 0.0V-10.296522216796875H24.79175537109375Q25.935016479492187 -10.296522216796875 26.68990814208984 -9.890216674804687Q27.4447998046875 -9.4839111328125 27.823060913085936 -8.757388916015625Q28.201322021484373 -8.03086669921875 28.201322021484373 -7.078694458007813Q28.201322021484373 -6.07695556640625 27.748060913085936 -5.30445556640625Q27.2947998046875 -4.53195556640625 26.441105346679688 -4.125650024414062L28.548277587890624 0.0H26.07260009765625L24.251083374023438 -3.7467333984374998H21.39523864746094V0.0ZM21.39523864746094 -5.525222167968749H24.49500549316406Q25.16673889160156 -5.525222167968749 25.542388916015625 -5.932502746582031Q25.91803894042969 -6.339783325195312 25.91803894042969 -7.0493444824218745Q25.91803894042969 -7.505211181640624 25.751083374023438 -7.821513977050781Q25.584127807617186 -8.137816772460937 25.268477783203124 -8.309664001464842Q24.952827758789063 -8.48151123046875 24.49500549316406 -8.48151123046875H21.39523864746094Z M37.45630554199219 0.0 41.40912780761719 -10.296522216796875H44.17241088867188L48.13697204589844 0.0H45.71868896484375L44.978477783203125 -2.0302056884765625H40.50653869628906L39.76632751464844 0.0ZM41.137844238281254 -3.8236944580078123H44.338694458007815L43.42109436035157 -6.365850219726562Q43.361094360351565 -6.522372436523438 43.280224914550786 -6.759764099121094Q43.19935546875 -6.99715576171875 43.11261657714844 -7.276286315917968Q43.025877685546874 -7.555416870117187 42.93913879394531 -7.838786315917968Q42.85239990234375 -8.12215576171875 42.78066101074219 -8.343894653320312H42.695877685546876Q42.61239990234375 -8.050416870117187 42.49142211914062 -7.6702001953125Q42.3704443359375 -7.289983520507812 42.253705444335935 -6.940091857910156Q42.13696655273438 -6.5902001953125 42.0554443359375 -6.365850219726562Z M57.758477783203126 0.0V-10.296522216796875H61.95848327636719Q63.56413879394531 -10.296522216796875 64.69370544433593 -9.741522216796874Q65.82327209472656 -9.186522216796874 66.42816375732423 -8.052391662597655Q67.03305541992188 -6.918261108398437 67.03305541992188 -5.1482611083984375Q67.03305541992188 -3.393261108398437 66.42816375732423 -2.2516305541992185Q65.82327209472656 -1.1099999999999999 64.69370544433593 -0.5549999999999999Q63.56413879394531 0.0 61.95848327636719 0.0ZM60.005238647460935 -1.8410998535156249H61.945438842773434Q62.62630554199219 -1.8410998535156249 63.14706390380859 -2.038055419921875Q63.667822265625 -2.235010986328125 64.0167333984375 -2.619791564941406Q64.36564453125 -3.0045721435546873 64.54433898925781 -3.5830471801757815Q64.72303344726562 -4.161522216796875 64.72303344726562 -4.921300048828125V-5.363483276367187Q64.72303344726562 -6.135 64.54433898925781 -6.713475036621094Q64.36564453125 -7.291950073242187 64.0167333984375 -7.676730651855468Q63.667822265625 -8.06151123046875 63.14706390380859 -8.258466796874998Q62.62630554199219 -8.455422363281249 61.945438842773434 -8.455422363281249H60.005238647460935Z M77.24347778320312 0.0V-10.296522216796875H79.49023864746094V0.0Z M90.15847778320312 0.0V-10.296522216796875H92.22718872070313L96.36456115722658 -4.73677734375Q96.45260559082031 -4.63373291015625 96.58369445800781 -4.448513488769532Q96.71478332519531 -4.263294067382812 96.83576385498047 -4.082313537597656Q96.95674438476563 -3.9013330078124997 97.00631103515626 -3.7917663574218747L97.08131103515626 -3.7982885742187498Q97.07804992675781 -4.0539440917968745 97.07804992675781 -4.296230163574219Q97.07804992675781 -4.538516235351563 97.07804992675781 -4.73677734375V-10.296522216796875H99.20089416503907V0.0H97.14718322753907L92.91002197265625 -5.6862725830078125Q92.76067199707032 -5.892361450195312 92.59828033447266 -6.151600341796875Q92.435888671875 -6.410839233398438 92.35306091308594 -6.541928100585937L92.27806091308594 -6.535405883789062Q92.28132202148439 -6.320839233398437 92.28132202148439 -6.100403137207031Q92.28132202148439 -5.879967041015624 92.28132202148439 -5.6862725830078125V0.0Z M114.555 0.18Q112.12760559082032 0.18 110.81575836181642 -1.1171749877929686Q109.50391113281252 -2.4143499755859374 109.50391113281252 -5.1482611083984375Q109.50391113281252 -6.953477783203125 110.13456390380861 -8.132608337402344Q110.7652166748047 -9.311738891601562 111.96065277099612 -9.894130554199219Q113.15608886718752 -10.476522216796875 114.83543884277346 -10.476522216796875Q115.84500549316408 -10.476522216796875 116.73294158935548 -10.246630554199218Q117.62087768554689 -10.016738891601562 118.30142211914064 -9.552716674804687Q118.98196655273439 -9.088694458007812 119.36348876953127 -8.388911132812499Q119.74501098632814 -7.689127807617187 119.74501098632814 -6.737605590820312H117.48390563964846Q117.48390563964846 -7.1967333984375 117.2794500732422 -7.554775085449219Q117.07499450683595 -7.912816772460937 116.71695281982423 -8.15901123046875Q116.35891113281251 -8.405205688476562 115.89489166259767 -8.526183471679687Q115.43087219238282 -8.647161254882812 114.91174438476564 -8.647161254882812Q114.13892211914064 -8.647161254882812 113.55392486572268 -8.442705688476561Q112.9689276123047 -8.238250122070312 112.5825164794922 -7.823469543457031Q112.1961053466797 -7.4086889648437495 112.00501922607424 -6.797605590820313Q111.81393310546876 -6.186522216796875 111.81393310546876 -5.370005493164062V-4.91477783203125Q111.81393310546876 -3.8008721923828124 112.14099700927736 -3.0746804809570314Q112.46806091308595 -2.34848876953125 113.12968872070314 -1.9989248657226562Q113.79131652832032 -1.6493609619140623 114.77087768554689 -1.6493609619140623Q115.5776110839844 -1.6493609619140623 116.19619445800782 -1.8949026489257812Q116.81477783203127 -2.1404443359375 117.17281951904297 -2.610658264160156Q117.5308612060547 -3.080872192382812 117.5308612060547 -3.752605590820312V-3.847822265625H114.45131103515627V-5.572177734375H119.74501098632814V0.0H118.28152770996095L118.08065551757814 -1.1139111328125Q117.6273944091797 -0.67695556640625 117.10761108398438 -0.3893472290039062Q116.58782775878908 -0.10173889160156249 115.96304443359377 0.03913055419921875Q115.33826110839846 0.18 114.555 0.18Z  M146.25326660156253 0.18Q144.63913330078128 0.18 143.5053277587891 -0.38478332519531244Q142.3715222167969 -0.9495666503906249 141.77576110839846 -2.1303277587890626Q141.18000000000004 -3.3110888671875 141.18000000000004 -5.1482611083984375Q141.18000000000004 -7.846955566406249 142.5081527709961 -9.161738891601562Q143.8363055419922 -10.476522216796875 146.25326660156253 -10.476522216796875Q147.57718322753908 -10.476522216796875 148.6242498779297 -10.026847229003906Q149.67131652832035 -9.577172241210937 150.28044708251957 -8.675213928222655Q150.88957763671877 -7.773255615234374 150.88957763671877 -6.40368896484375H148.64021118164064Q148.64021118164064 -7.121077880859374 148.34216949462893 -7.620641784667968Q148.0441278076172 -8.120205688476561 147.51163055419926 -8.383683471679687Q146.97913330078129 -8.647161254882812 146.27348327636722 -8.647161254882812Q145.3219665527344 -8.647161254882812 144.70077484130863 -8.270858459472656Q144.07958312988285 -7.8945556640625 143.78480255126956 -7.1667333984375Q143.49002197265628 -6.4389111328125 143.49002197265628 -5.381744384765625V-4.91477783203125Q143.49002197265628 -3.8458721923828123 143.78643310546877 -3.1180499267578123Q144.08284423828127 -2.3902276611328124 144.69653594970706 -2.0197943115234374Q145.31022766113284 -1.6493609619140623 146.26696105957035 -1.6493609619140623Q147.02087219238283 -1.6493609619140623 147.57163055419923 -1.9037081909179687Q148.12238891601564 -2.158055419921875 148.42206115722658 -2.65598876953125Q148.72173339843752 -3.153922119140625 148.72173339843752 -3.8680499267578123H150.88957763671877Q150.88957763671877 -2.5050054931640626 150.2928387451172 -1.6063082885742188Q149.69609985351565 -0.707611083984375 148.65066375732425 -0.26380554199218753Q147.60522766113283 0.18 146.25326660156253 0.18Z M165.84652770996098 0.18Q164.2089166259766 0.18 163.02261108398443 -0.40239166259765624Q161.83630554199223 -0.9847833251953124 161.20565277099615 -2.1714138793945312Q160.57500000000005 -3.35804443359375 160.57500000000005 -5.1482611083984375Q160.57500000000005 -6.953477783203125 161.20565277099615 -8.132608337402344Q161.83630554199223 -9.311738891601562 163.02261108398443 -9.894130554199219Q164.2089166259766 -10.476522216796875 165.84652770996098 -10.476522216796875Q167.49913879394535 -10.476522216796875 168.67957489013673 -9.894130554199219Q169.86001098632815 -9.311738891601562 170.49066375732423 -8.132608337402344Q171.12131652832034 -6.953477783203125 171.12131652832034 -5.1482611083984375Q171.12131652832034 -3.35804443359375 170.49066375732423 -2.1714138793945312Q169.86001098632815 -0.9847833251953124 168.67957489013673 -0.40239166259765624Q167.49913879394535 0.18 165.84652770996098 0.18ZM165.84652770996098 -1.6493609619140623Q166.57434997558596 -1.6493609619140623 167.12771667480473 -1.8629470825195311Q167.68108337402347 -2.076533203125 168.05836395263674 -2.491313781738281Q168.43564453125003 -2.9060943603515623 168.62933898925786 -3.5129388427734374Q168.82303344726566 -4.119783325195312 168.82303344726566 -4.9030389404296875V-5.370005493164062Q168.82303344726566 -6.165 168.62933898925786 -6.777713928222656Q168.43564453125003 -7.390427856445312 168.05836395263674 -7.805208435058593Q167.68108337402347 -8.219989013671874 167.12771667480473 -8.433575134277344Q166.57434997558596 -8.647161254882812 165.84652770996098 -8.647161254882812Q165.11870544433597 -8.647161254882812 164.56533874511723 -8.433575134277344Q164.01197204589846 -8.219989013671874 163.6363220214844 -7.805208435058593Q163.26067199707035 -7.390427856445312 163.0728469848633 -6.777713928222656Q162.8850219726563 -6.165 162.8850219726563 -5.370005493164062V-4.9030389404296875Q162.8850219726563 -4.119783325195312 163.0728469848633 -3.5129388427734374Q163.26067199707035 -2.9060943603515623 163.6363220214844 -2.491313781738281Q164.01197204589846 -2.076533203125 164.56533874511723 -1.8629470825195311Q165.11870544433597 -1.6493609619140623 165.84652770996098 -1.6493609619140623Z M181.32847778320317 0.0V-10.296522216796875H184.73937194824225L186.21262207031256 -5.0230773925781245Q186.29609985351567 -4.745905151367188 186.39099151611333 -4.354599609375001Q186.485883178711 -3.9632940673828125 186.5781665039063 -3.5791607666015626Q186.6704498291016 -3.195027465820312 186.72849426269536 -2.897633056640625H186.84849426269537Q186.88827758789068 -3.1454608154296873 186.9596914672852 -3.503180236816406Q187.03110534667974 -3.8608996582031248 187.12175811767582 -4.264596862792969Q187.2124108886719 -4.668294067382813 187.31414978027348 -5.034816284179687L188.7873999023438 -10.296522216796875H192.13894409179693V0.0H189.9247943115235V-4.882150268554687Q189.9247943115235 -5.552583618164062 189.93816375732428 -6.231169738769531Q189.95153320312505 -6.909755859375 189.9707720947266 -7.421061401367187Q189.99001098632817 -7.932366943359375 189.99001098632817 -8.084328002929688H189.87001098632817Q189.83674987792975 -7.913455810546875 189.72490264892582 -7.473239135742187Q189.61305541992192 -7.0330224609375 189.48783874511724 -6.535741882324219Q189.36262207031254 -6.038461303710937 189.260883178711 -5.679766845703125L187.6441497802735 0.0H185.6973999023438L184.07740539550787 -5.668027954101563Q183.9906665039063 -5.979766845703125 183.88142761230475 -6.412483520507813Q183.77218872070318 -6.8452001953125 183.66784149169928 -7.29715576171875Q183.56349426269537 -7.749111328125 183.48001647949224 -8.081066894531249H183.36001647949223Q183.37501647949225 -7.682589111328125 183.39001647949226 -7.118458557128906Q183.40501647949225 -6.5543280029296875 183.41838592529302 -5.965414123535156Q183.4317553710938 -5.376500244140625 183.4317553710938 -4.882150268554687V0.0Z M202.8084777832032 0.0V-10.296522216796875H208.17066650390632Q209.2747943115235 -10.296522216796875 210.0172943115235 -9.883369445800781Q210.7597943115235 -9.470216674804687 211.14457763671882 -8.725433349609375Q211.52936096191414 -7.980650024414063 211.52936096191414 -6.957388916015625Q211.52936096191414 -5.939344482421875 211.13120819091804 -5.181191711425781Q210.73305541992195 -4.423038940429687 209.96707763671884 -4.005647277832031Q209.2010998535157 -3.5882556152343748 208.08849426269538 -3.5882556152343748H205.055238647461V0.0ZM205.055238647461 -5.41631103515625H207.80021667480474Q208.5013000488282 -5.41631103515625 208.88118896484383 -5.821308288574219Q209.26107788085943 -6.226305541992187 209.26107788085943 -6.95086669921875Q209.26107788085943 -7.439994506835937 209.09575286865243 -7.772275085449219Q208.9304278564454 -8.1045556640625 208.60988616943365 -8.283250122070314Q208.28934448242194 -8.461944580078125 207.80021667480474 -8.461944580078125H205.055238647461Z M220.38130554199228 0.0 224.33412780761728 -10.296522216796875H227.09741088867196L231.06197204589853 0.0H228.64368896484382L227.90347778320321 -2.0302056884765625H223.43153869628915L222.69132751464852 0.0ZM224.06284423828131 -3.8236944580078123H227.26369445800788L226.34609436035163 -6.365850219726562Q226.28609436035163 -6.522372436523438 226.20522491455085 -6.759764099121094Q226.12435546875008 -6.99715576171875 226.03761657714853 -7.276286315917968Q225.95087768554694 -7.555416870117187 225.8641387939454 -7.838786315917968Q225.77739990234383 -8.12215576171875 225.70566101074226 -8.343894653320312H225.62087768554696Q225.53739990234382 -8.050416870117187 225.4164221191407 -7.6702001953125Q225.2954443359376 -7.289983520507812 225.178705444336 -6.940091857910156Q225.06196655273445 -6.5902001953125 224.9804443359376 -6.365850219726562Z M240.68347778320322 0.0V-10.296522216796875H242.75218872070323L246.88956115722667 -4.73677734375Q246.97760559082042 -4.63373291015625 247.1086944580079 -4.448513488769532Q247.23978332519542 -4.263294067382812 247.36076385498058 -4.082313537597656Q247.48174438476573 -3.9013330078124997 247.53131103515634 -3.7917663574218747L247.60631103515635 -3.7982885742187498Q247.6030499267579 -4.0539440917968745 247.6030499267579 -4.296230163574219Q247.6030499267579 -4.538516235351563 247.6030499267579 -4.73677734375V-10.296522216796875H249.72589416503916V0.0H247.67218322753916L243.43502197265636 -5.6862725830078125Q243.2856719970704 -5.892361450195312 243.12328033447275 -6.151600341796875Q242.9608886718751 -6.410839233398438 242.87806091308605 -6.541928100585937L242.80306091308603 -6.535405883789062Q242.80632202148448 -6.320839233398437 242.80632202148448 -6.100403137207031Q242.80632202148448 -5.879967041015624 242.80632202148448 -5.6862725830078125V0.0Z M263.38956665039075 0.0V-4.14586669921875L259.40021667480477 -10.296522216796875H261.9893719482423L264.5445776367188 -6.145449829101563H264.6163165283204L267.14804443359384 -10.296522216796875H269.60089416503916L265.63632751464854 -4.14586669921875V0.0Z" fill="#c9471f"/></svg>
